<svg xmlns="http://www.w3.org/2000/svg" viewBox="0 0 200 200" role="img" aria-label="CR Coffee paper cup">
  <!-- Shadow on table -->
  <ellipse cx="100" cy="184" rx="44" ry="6" fill="rgba(23,23,23,0.18)"/>

  <!-- White paper cup body, slightly tapered (wider at top, narrower at base) -->
  <path d="M 58 78 L 66 178 Q 66 182 70 182 L 130 182 Q 134 182 134 178 L 142 78 Z"
        fill="#f5efe2" stroke="#1d1d1d" stroke-width="4" stroke-linejoin="round"/>

  <!-- Subtle inner-rim line where the lid meets the cup -->
  <path d="M 60 80 Q 100 86 140 80" fill="none" stroke="#1d1d1d" stroke-width="1.6" opacity="0.45"/>

  <!-- Black paper sleeve covering middle of cup, follows the taper -->
  <path d="M 60 100 L 64 154 Q 64 156 66 156 L 134 156 Q 136 156 136 154 L 140 100 Z"
        fill="#1d1d1d"/>

  <!-- White stitched lines along sleeve edges -->
  <path d="M 60.5 105 Q 100 108 139.5 105" fill="none" stroke="#f5efe2" stroke-width="1.2" opacity="0.85"/>
  <path d="M 64.5 150 Q 100 153 135.5 150" fill="none" stroke="#f5efe2" stroke-width="1.2" opacity="0.85"/>

  <!-- "CR" wordmark on sleeve -->
  <text x="100" y="138" text-anchor="middle"
        font-family="Georgia, 'Times New Roman', serif" font-size="32" font-weight="400"
        fill="#f5efe2" letter-spacing="3">CR</text>

  <!-- "COFFEE SHOP" subtitle on sleeve -->
  <text x="100" y="148" text-anchor="middle"
        font-family="Helvetica, Arial, sans-serif" font-size="5.5" font-weight="700"
        fill="#f5efe2" letter-spacing="1.2">COFFEE SHOP</text>

  <!-- Black lid: flat-top profile.
       Outer skirt that wraps over the cup rim, with a flat top surface.
       Built as: outer skirt + top deck + inner sip-hole. -->

  <!-- Outer skirt of lid (covers cup rim, slightly wider than cup top) -->
  <path d="M 56 60 L 144 60 L 142 80 Q 142 82 140 82 L 60 82 Q 58 82 58 80 Z"
        fill="#1d1d1d" stroke="#1d1d1d" stroke-width="3" stroke-linejoin="round"/>

  <!-- Flat top deck of lid: a wide thin ellipse that reads as the flat surface -->
  <ellipse cx="100" cy="60" rx="44" ry="5"
           fill="#2a2a2a" stroke="#1d1d1d" stroke-width="3"/>

  <!-- Highlight along the front edge of the flat top -->
  <path d="M 64 60 Q 100 64 136 60" stroke="rgba(255,255,255,0.22)" stroke-width="1.4" fill="none" stroke-linecap="round"/>

  <!-- Subtle horizontal seam between the top deck and the skirt (the snap rim) -->
  <path d="M 58 70 L 142 70" stroke="rgba(0,0,0,0.45)" stroke-width="1" stroke-linecap="round"/>

  <!-- Sip-hole on the top deck (small slot, slightly forward of center) -->
  <rect x="92" y="58" width="16" height="3" rx="1.5" fill="#000" opacity="0.7"/>
</svg>
